<svg xmlns="http://www.w3.org/2000/svg" xmlns:xlink="http://www.w3.org/1999/xlink" width="500" zoomAndPan="magnify" viewBox="0 0 375 374.999991" height="500" preserveAspectRatio="xMidYMid meet" version="1.0"><defs><clipPath id="c2867ee99a"><path d="M 39 16 L 362 16 L 362 365.652344 L 39 365.652344 Z M 39 16 " clip-rule="nonzero"/></clipPath><clipPath id="8ca50cc8b0"><path d="M 23.421875 29 L 261 29 L 261 353 L 23.421875 353 Z M 23.421875 29 " clip-rule="nonzero"/></clipPath></defs><g clip-path="url(#c2867ee99a)"><path fill="#004aad" d="M 202.570312 365.855469 C 342.367188 304.773438 240.058594 211.933594 316.335938 99.078125 C 323.085938 153.179688 336.640625 211.878906 306.640625 269.101562 C 337.320312 220.722656 352.179688 119.039062 308.679688 74.179688 C 297.339844 62.496094 284.125 52.175781 269.261719 43.722656 C 189.753906 -1.304688 89.882812 22.628906 39.011719 96.523438 C 88.804688 18.886719 191.226562 -7.089844 272.441406 38.960938 C 289 48.316406 303.40625 60 315.542969 73.328125 C 319.34375 77.464844 322.917969 81.777344 326.203125 86.261719 C 366.925781 140.25 374.183594 215.339844 338.738281 277.890625 C 309.359375 329.671875 257.640625 360.75 202.570312 365.855469 " fill-opacity="1" fill-rule="evenodd"/></g><g clip-path="url(#8ca50cc8b0)"><path fill="#38b6ff" d="M 108.9375 54.660156 C 108.425781 57.15625 109.222656 59.652344 110.355469 61.183594 C 111.375 60.84375 112.738281 59.765625 113.53125 59.027344 C 113.472656 57.382812 112.792969 57.269531 112.113281 55.964844 C 111.148438 54.207031 111.035156 54.550781 108.9375 54.660156 Z M 102.640625 59.824219 C 104.003906 60.5 105.363281 60.5 106.101562 59.027344 C 107.179688 55.285156 103.097656 54.207031 101.335938 56.703125 C 100.316406 58.234375 101.335938 59.144531 102.640625 59.824219 Z M 101.109375 82.113281 C 101.449219 80.75 101.847656 81.828125 101.566406 78.707031 C 99.636719 78.085938 98.160156 78.367188 96.800781 79.839844 C 94.703125 82.113281 96.402344 82.503906 95.722656 84.433594 C 94.023438 84.664062 94.25 84.039062 92.375 84.664062 C 91.074219 88.121094 94.023438 87.839844 95.496094 89.085938 C 96.0625 89.539062 96.289062 89.992188 96.800781 90.390625 C 102.984375 89.484375 100.769531 83.46875 101.109375 82.113281 Z M 112.339844 76.378906 C 110.582031 75.871094 108.597656 74.679688 105.363281 76.496094 C 103.890625 77.234375 103.71875 81.203125 103.71875 82.847656 L 103.832031 84.71875 L 106.78125 84.890625 C 107.859375 80.46875 107.40625 83.019531 110.128906 80.972656 C 111.09375 80.183594 110.980469 79.558594 111.546875 78.707031 C 112.453125 77.34375 112.398438 78.195312 112.339844 76.378906 Z M 111.09375 67.308594 C 111.09375 70.371094 110.980469 70.820312 112.285156 72.925781 L 126.632812 71.050781 C 128.445312 70.878906 132.417969 72.359375 132.417969 66.34375 C 132.417969 64.699219 130.828125 63.792969 128.84375 63.792969 C 125.496094 63.792969 121.699219 68.046875 118.070312 66.855469 C 116.140625 66.230469 118.125 66.515625 115.289062 66.171875 L 115.0625 66.117188 L 114.664062 66.003906 C 115.457031 64.246094 116.140625 66.570312 116.140625 64.019531 C 116.140625 62.375 114.210938 62.316406 112.679688 62.261719 C 110.980469 62.203125 109.503906 61.976562 108.085938 62.148438 C 106.328125 62.429688 106.78125 64.246094 107.859375 65.207031 C 108.824219 66.058594 110.410156 66.058594 111.09375 67.308594 Z M 94.816406 67.816406 C 94.25 70.199219 94.644531 71.277344 97.707031 73.375 C 98.386719 73.890625 99.582031 74.058594 100.65625 73.773438 C 103.097656 73.148438 102.867188 71.84375 102.925781 71.394531 L 106.046875 73.660156 C 109.050781 72.808594 110.296875 71.730469 108.710938 68.953125 L 105.988281 68.722656 C 104.96875 66.855469 104.683594 64.074219 101.566406 66.058594 C 99.351562 67.480469 98.160156 67.816406 94.816406 67.816406 Z M 72.980469 77.855469 C 73.832031 81.148438 79.84375 82.566406 83.078125 80.972656 C 85.460938 79.839844 84.890625 78.421875 87.160156 77.742188 C 89.03125 77.234375 88.125 77.40625 89.429688 76.441406 C 90.164062 75.871094 91.414062 75.589844 92.039062 75.078125 C 91.980469 72.640625 91.640625 72.863281 90.050781 71.960938 C 90.394531 71.050781 90.335938 71.394531 90.109375 69.746094 C 85.96875 69.578125 87.953125 71.785156 86.363281 74.679688 L 82.621094 72.582031 C 81.035156 71.332031 80.695312 70.878906 78.710938 72.359375 C 76.894531 73.714844 73.71875 75.925781 72.980469 77.855469 Z M 147.617188 252.988281 C 145.234375 251.625 138.257812 250.605469 137.292969 256.730469 C 138.9375 257.015625 138.882812 256.5 140.46875 257.183594 C 143.363281 258.316406 147.277344 257.128906 148.976562 255.878906 C 148.976562 254.742188 148.808594 253.667969 147.617188 252.988281 Z M 136.726562 250.546875 C 135.421875 250.09375 134.628906 249.296875 133.210938 248.5625 C 131.960938 247.941406 130.488281 247.371094 129.355469 246.800781 C 119.089844 241.925781 119.828125 244.59375 116.140625 244.648438 L 116.140625 247.710938 C 121.414062 247.3125 122.378906 247.144531 128.21875 250.261719 C 131.566406 252.078125 130.207031 252.472656 132.304688 252.644531 L 133.039062 252.703125 C 133.4375 252.816406 136.441406 255.707031 136.726562 250.546875 Z M 240.964844 114.039062 C 242.441406 113.695312 242.777344 113.246094 243.972656 114.890625 C 243.742188 115.855469 244.367188 115.34375 242.722656 115.742188 C 243.742188 121.183594 244.027344 116.988281 244.253906 120.335938 C 246.183594 120.730469 245.613281 120.28125 246.183594 122.320312 C 250.949219 123 248.90625 123.964844 251.34375 123.964844 C 252.933594 123.964844 255.765625 122.660156 256.789062 121.980469 C 258.207031 121.070312 259.792969 119.085938 260.984375 118.632812 C 260.984375 115.742188 260.472656 114.265625 258.886719 112.625 C 254.746094 108.367188 255.65625 111.542969 253.667969 111.542969 L 246.410156 111.542969 C 244.707031 111.542969 246.691406 110.296875 243.007812 109.84375 C 241.816406 111.429688 241.308594 111.316406 240.964844 114.039062 Z M 177.957031 76.324219 C 178.582031 80.015625 175.179688 80.351562 177.730469 83.46875 C 180.167969 83.300781 179.203125 82.113281 182.039062 81.828125 C 182.378906 82.394531 182.496094 82.394531 182.777344 83.019531 C 183.175781 83.980469 182.722656 83.753906 183.402344 84.433594 C 184.367188 85.457031 185.953125 84.320312 185.101562 87.160156 C 182.890625 86.929688 183.796875 85.628906 181.699219 85.628906 C 176.484375 85.628906 178.410156 94.019531 181.019531 94.019531 C 182.777344 94.019531 183.628906 93.398438 184.988281 92.832031 C 184.988281 91.410156 184.875 91.410156 184.308594 90.449219 L 186.011719 90.449219 C 187.941406 96.402344 182.550781 95.097656 181.53125 97.933594 C 181.304688 98.613281 180.679688 99.125 180.679688 100.03125 C 180.792969 114.550781 181.246094 105.871094 182.550781 111.429688 C 182.835938 112.679688 183.117188 114.835938 183.230469 116.367188 C 185.046875 116.253906 185.558594 115.515625 187.089844 116.023438 C 187.03125 116.988281 186.011719 117.328125 186.011719 119.144531 C 186.011719 123 186.40625 123.679688 188.847656 126.515625 C 189.582031 127.367188 190.378906 127.761719 190.71875 128.617188 C 191.570312 131.054688 190.09375 130.996094 193.496094 131.789062 C 199.449219 133.210938 199.335938 138.140625 204.042969 134.570312 C 204.101562 131.109375 205.234375 130.148438 205.347656 127.425781 C 205.460938 124.078125 206.027344 122.886719 208.125 121.527344 C 208.125 119.371094 207.957031 117.5 208.523438 115.625 C 209.375 113.019531 209.828125 114.605469 210.570312 111.429688 C 214.082031 110.75 216.296875 110.863281 218.960938 108.878906 C 222.25 106.382812 223.609375 103.039062 224.800781 102.128906 C 224.859375 102.074219 225.484375 101.675781 225.597656 101.621094 C 227.296875 100.597656 229.625 100.429688 231.890625 99.917969 C 240.625 98.160156 235.519531 96.289062 240.796875 96.289062 C 241.363281 95.210938 242.042969 94.585938 242.609375 93.566406 C 243.292969 92.320312 243.121094 91.355469 244.195312 90.558594 L 243.175781 87.441406 C 242.777344 85.175781 242.550781 86.761719 241.644531 85.117188 C 241.308594 83.8125 242.15625 80.972656 242.042969 80.238281 C 241.757812 78.652344 241.132812 80.40625 241.132812 78.539062 C 241.132812 77.175781 241.589844 77.519531 241.816406 77.289062 C 242.328125 76.722656 242.496094 76.664062 242.441406 76.722656 C 242.722656 76.378906 242.382812 76.777344 242.722656 76.210938 C 243.175781 75.476562 242.894531 75.703125 243.515625 74.960938 C 246.804688 70.652344 243.6875 71.394531 243.175781 68.667969 C 244.761719 68.839844 244.425781 69.917969 246.125 70.539062 C 247.257812 69.40625 247.601562 69.121094 247.429688 66.96875 C 242.550781 65.835938 245.273438 66.230469 242.382812 63.734375 C 242.210938 63.621094 236.484375 59.710938 240.113281 59.710938 C 241.589844 59.710938 242.097656 60.675781 243.460938 59.710938 C 244.761719 58.0625 241.308594 56.417969 240.679688 55.90625 C 239.433594 55.003906 237.617188 54.039062 237.617188 52.109375 C 237.617188 46.71875 242.097656 45.1875 242.15625 41.050781 C 226.105469 36 231.777344 40.140625 228.769531 40.371094 L 228.882812 37.25 C 224.234375 35.660156 226.671875 36.570312 223.042969 38.097656 C 222.25 37.078125 222.933594 37.421875 222.308594 36.230469 C 221.855469 35.324219 221.796875 35.660156 221.34375 34.925781 C 220.945312 34.359375 220.835938 33.734375 220.546875 33.394531 C 220.039062 32.714844 219.640625 32.828125 219.300781 32.261719 L 243.40625 39.519531 C 230.699219 34.582031 217.316406 31.183594 203.363281 29.535156 C 203.417969 29.59375 203.476562 29.59375 203.476562 29.59375 C 202.003906 32.714844 198.941406 30.21875 197.523438 30.21875 C 194.914062 30.21875 196.898438 30.953125 193.949219 31.296875 C 188.621094 31.976562 183.34375 31.863281 178.070312 31.519531 C 175.234375 31.351562 173.535156 32.660156 170.585938 32.203125 C 168.542969 31.863281 166.898438 31.011719 164.574219 31.296875 C 158.335938 32.148438 153.003906 33.449219 146.878906 34.46875 C 140.867188 35.492188 136.839844 38.609375 130.429688 38.609375 C 129.242188 39.917969 130.148438 40.203125 127.824219 40.371094 C 126.179688 40.539062 125.328125 40.824219 124.816406 42.1875 C 125.613281 43.832031 126.179688 42.808594 126.800781 44.453125 C 123.851562 44.511719 125.328125 43.71875 123.570312 43.71875 L 120.902344 43.71875 C 120.167969 44.167969 115.800781 48.308594 115.121094 48.992188 C 113.871094 50.351562 114.382812 51.144531 115.175781 52.902344 C 117.105469 57.042969 118.070312 55.90625 120.394531 54.945312 C 121.582031 56.304688 121.300781 55.796875 121.246094 58.800781 C 120.222656 59.535156 118.863281 60.332031 117.953125 61.351562 C 118.011719 61.410156 118.296875 61.808594 118.410156 61.921875 C 120.507812 64.246094 128.332031 62.148438 129.808594 60.785156 C 131.507812 61.578125 131.339844 62.03125 133.664062 61.242188 C 139.109375 59.253906 136.046875 58.460938 138.085938 54.71875 C 139.335938 52.507812 139.503906 52.960938 141.378906 52.5625 C 143.476562 52.054688 144.554688 45.984375 149.429688 43.601562 C 152.4375 42.1875 153.457031 41.222656 156.066406 39.0625 C 158.050781 37.476562 157.824219 38.273438 157.882812 35.210938 C 159.523438 35.09375 160.945312 35.324219 162.984375 34.699219 C 164.289062 34.300781 166.273438 33.5625 167.804688 34.300781 C 167.75 35.660156 167.917969 35.09375 165.761719 35.832031 C 163.210938 36.679688 161.339844 38.042969 158.84375 38.78125 L 158.902344 41.160156 C 160.148438 41.222656 160.886719 41.335938 161.511719 42.1875 C 160.886719 43.546875 160.660156 42.238281 159.582031 44.453125 C 154.820312 44.453125 154.363281 46.4375 150.675781 47.515625 C 149.203125 47.96875 148.183594 47.347656 148.183594 48.820312 C 148.183594 55.003906 154.023438 50.863281 158.84375 52.394531 C 157.539062 55.851562 153.003906 53.242188 151.019531 53.753906 C 150.222656 53.980469 149.769531 54.492188 149.203125 54.886719 C 149.375 58.121094 150.167969 56.648438 151.699219 57.382812 C 152.605469 57.78125 152.890625 59.480469 153.402344 60.390625 C 157.652344 59.824219 161.851562 59.199219 166.160156 59.199219 C 168.941406 59.199219 173.136719 63.847656 174.101562 65.945312 C 174.667969 67.191406 174.328125 66.457031 175.007812 67.367188 C 175.746094 68.441406 177.785156 75.421875 177.957031 76.324219 Z M 132.191406 91.808594 C 133.835938 93.054688 134.6875 95.496094 134.6875 98.046875 C 136.332031 98.046875 138.9375 98.214844 138.9375 99.804688 C 137.804688 100.824219 135.253906 99.917969 133.496094 100.597656 C 132.191406 101.449219 131.625 105.871094 135.367188 105.589844 C 138.769531 105.304688 138.9375 102.300781 141.265625 102.46875 C 141.605469 108.425781 139.789062 105.589844 138.203125 110.410156 C 137.917969 111.316406 138.085938 111.882812 137.917969 113.019531 C 132.53125 113.304688 130.429688 113.527344 130.429688 118.121094 C 135.367188 119.710938 133.777344 118.574219 138.429688 117.386719 C 144.214844 121.867188 139.617188 122.492188 149.261719 126.800781 C 151.414062 127.761719 152.207031 128.558594 154.195312 127.367188 C 153.628906 123.285156 149.714844 123.34375 149.488281 121.300781 C 152.4375 121.527344 154.363281 123.566406 157.3125 124.246094 C 159.355469 118.40625 157.710938 118.296875 155.78125 116.023438 C 152.777344 112.507812 152.097656 112.90625 152.265625 108.140625 C 156.464844 108.820312 155.046875 114.210938 159.582031 114.09375 C 162.871094 114.039062 164.289062 106.324219 164.175781 106.097656 C 163.324219 104.117188 162.472656 105.25 161.054688 104.117188 L 158.277344 101.621094 C 153.003906 97.195312 153.289062 100.429688 153.230469 96.289062 C 154.136719 96.230469 154.308594 96.175781 154.761719 95.894531 C 154.761719 95.664062 153.855469 89.3125 153.402344 90.050781 C 153.34375 90.164062 153.117188 89.9375 152.945312 89.824219 C 151.1875 88.859375 152.039062 89.257812 150.90625 88.179688 C 149.375 86.816406 149.375 88.0625 147.84375 86.648438 C 145.0625 84.039062 146.539062 82.902344 142 83.8125 C 141.492188 83.074219 140.980469 82.679688 140.300781 81.9375 C 139.390625 80.863281 138.371094 78.59375 137.691406 77.234375 C 136.839844 75.53125 137.125 77.0625 137.179688 74.792969 C 132.359375 73.601562 136.671875 73.945312 128.84375 73.945312 C 127.425781 73.945312 128.390625 74.566406 125.839844 74.679688 C 125.15625 74.738281 125.042969 74.625 124.417969 74.847656 C 123.570312 75.136719 124.648438 75.023438 123.117188 75.644531 C 119.941406 71.617188 114.269531 78.765625 112.792969 82 C 112.339844 82.847656 111.546875 85.628906 111.148438 86.308594 C 113.078125 87.839844 113.304688 86.761719 114.890625 89.027344 C 113.703125 91.015625 113.757812 89.769531 112.90625 92.886719 C 117.332031 93.90625 123.738281 93.964844 128.503906 93.398438 C 131.394531 93 130.488281 92.488281 132.191406 91.808594 Z M 104.796875 149.484375 C 108.03125 150.621094 110.921875 152.261719 113.757812 154.078125 C 116.421875 155.78125 118.636719 154.25 120.394531 156.289062 C 121.359375 158.503906 118.804688 164.625 122.378906 166.554688 L 125.214844 168.199219 C 129.242188 166.214844 125.839844 163.210938 125.839844 160.09375 L 126.347656 156.972656 C 126.914062 155.15625 126.121094 156.179688 127.878906 155.5 C 130.035156 154.757812 129.355469 154.476562 130.375 152.4375 C 131.453125 150.339844 131.226562 150.730469 130.714844 148.066406 C 129.863281 143.300781 126.914062 142.28125 128.503906 140.296875 C 130.035156 138.371094 129.921875 139.445312 129.863281 135.984375 C 129.863281 134.117188 129.921875 132.246094 129.863281 130.371094 C 129.863281 125.777344 128.277344 126.6875 140.074219 126.800781 C 140.867188 127.992188 143.078125 130.371094 144.042969 131.054688 C 145.402344 131.902344 145.800781 131.335938 146.480469 132.925781 C 148.464844 137.460938 145.859375 139.902344 145.6875 141.601562 C 146.878906 141.601562 147.785156 141.203125 148.523438 141.433594 C 150.621094 142 150.507812 143.984375 153.34375 140.976562 C 155.839844 138.371094 154.023438 137.40625 155.5 135.589844 C 157.484375 133.152344 159.183594 137.292969 159.808594 138.710938 C 160.773438 140.691406 161.90625 142.339844 162.699219 144.4375 C 162.8125 144.71875 162.929688 145.003906 163.042969 145.402344 C 163.324219 146.082031 163.496094 146.136719 163.609375 146.535156 C 164.230469 148.691406 161.226562 148.691406 165.027344 151.640625 C 166.21875 152.546875 166.84375 153.625 167.804688 154.757812 L 171.945312 154.988281 L 173.363281 158.164062 C 173.476562 158.503906 173.648438 159.070312 173.875 159.351562 C 175.007812 160.828125 173.761719 159.410156 174.78125 160.035156 C 175.519531 160.488281 175.234375 160.148438 175.6875 160.773438 C 177.390625 162.925781 176.652344 166.609375 176.652344 169.671875 C 176.652344 171.601562 175.40625 170.636719 175.6875 173.699219 C 177.558594 174.378906 177.390625 174.265625 179.773438 174.324219 C 180.453125 175.96875 180.394531 174.890625 180.734375 177.273438 C 180.964844 178.917969 181.359375 178.972656 182.265625 180.050781 C 183.742188 181.8125 183.515625 184.59375 180.679688 183.964844 C 176.253906 183 177.277344 180.621094 167.75 180.621094 C 168.203125 178.972656 169.109375 178.070312 169.734375 176.539062 C 170.527344 174.609375 172.398438 171.320312 172.230469 169.5625 C 169.054688 168.882812 168.882812 170.46875 168.601562 171.773438 C 167.691406 171.886719 161.738281 172.625 161.226562 172.964844 C 161.625 173.476562 162.132812 173.53125 162.929688 173.53125 L 162.871094 176.59375 C 158.164062 176.59375 159.523438 176.539062 157.484375 174.042969 C 156.066406 172.28125 153.289062 173.304688 151.414062 174.097656 C 148.410156 175.289062 148.351562 175.175781 146.878906 177.839844 C 145.628906 180.050781 143.53125 180.28125 143.363281 182.71875 C 146.195312 182.433594 145.800781 179.714844 149.203125 177.5 C 150.566406 176.59375 153.855469 174.496094 155.667969 175.175781 C 159.242188 176.480469 154.136719 178.917969 157.765625 182.035156 C 158.5625 182.664062 159.640625 182.832031 160.488281 183.285156 C 163.042969 184.417969 164.574219 184.019531 167.238281 183.453125 C 167.238281 186.746094 167.351562 186.179688 165.59375 187.9375 C 164.230469 189.1875 163.609375 189.46875 161.511719 189.808594 C 159.640625 190.089844 159.355469 191.109375 157.882812 192.132812 C 156.066406 193.382812 156.066406 193.324219 153.402344 193.324219 C 152.835938 190.144531 154.476562 191.738281 154.476562 189.355469 C 151.074219 189.128906 152.890625 190.207031 150.109375 190.941406 C 148.578125 191.339844 147.84375 191.453125 146.707031 192.472656 L 144.15625 194.855469 C 143.53125 195.878906 144.097656 197.691406 144.097656 199.164062 C 142.226562 199.789062 140.46875 200.414062 138.9375 201.605469 C 136.726562 203.25 137.066406 203.816406 135.875 206.480469 C 135.082031 208.296875 134.289062 209.828125 133.605469 212.152344 C 131.792969 218.335938 132.359375 216.292969 129.125 219.523438 C 127.3125 221.34375 124.023438 222.8125 122.71875 225.027344 C 120.054688 229.675781 125.382812 231.492188 125.328125 239.035156 L 125.269531 240.339844 C 124.308594 240.339844 123.285156 240.339844 122.546875 240.054688 C 121.246094 239.542969 119.828125 235.859375 119.316406 234.382812 C 117.273438 228.882812 117.273438 227.691406 106.554688 229 L 106.101562 230.925781 C 102.246094 231.492188 102.1875 229.394531 98.785156 229.394531 C 96.914062 229.394531 92.773438 232.796875 92.773438 234.441406 C 92.773438 245.613281 91.808594 242.605469 95.042969 248.730469 C 95.894531 250.320312 96.574219 252.136719 98.445312 252.589844 C 102.585938 253.554688 105.648438 251.058594 106.273438 246.917969 C 110.015625 246.917969 109.335938 246.519531 111.886719 248.050781 C 111.714844 251.226562 110.808594 251.679688 110.808594 257.695312 C 112.851562 258.941406 116.195312 259.167969 118.578125 260.191406 C 121.414062 261.4375 120.507812 265.351562 120.507812 269.089844 C 120.960938 269.886719 122.039062 270.851562 122.664062 271.304688 C 124.082031 272.496094 124.195312 272.097656 125.949219 271.929688 C 131.453125 271.304688 129.125 272.722656 132.8125 273.628906 C 134.289062 272.722656 134.855469 270.964844 137.011719 270 C 137.917969 269.660156 139.050781 269.378906 140.015625 269.035156 C 143.417969 267.789062 138.542969 264.785156 148.691406 269.714844 L 151.472656 271.191406 C 154.648438 272.664062 160.320312 270.679688 162.363281 271.929688 C 163.664062 272.722656 162.757812 272.949219 163.777344 273.800781 C 164.574219 274.367188 166.5 274.648438 168.257812 275.957031 C 169.5625 276.917969 173.136719 280.152344 174.101562 280.378906 C 178.808594 281.511719 183.910156 279.585938 187.425781 286.789062 C 190.09375 292.402344 186.351562 290.757812 192.816406 292.003906 C 194.175781 292.234375 194.972656 292.570312 196.390625 293.023438 C 201.777344 294.667969 200.867188 295.75 204.78125 295.179688 C 207.84375 294.730469 215.445312 298.8125 218.28125 299.832031 C 218.28125 306.46875 217.597656 305.445312 213.746094 309.078125 C 212.324219 310.378906 210.738281 311.117188 210.109375 312.421875 C 209.71875 313.042969 209.152344 316.617188 208.695312 317.921875 C 207.675781 320.8125 205.523438 324.390625 202.964844 326.03125 C 201.605469 326.9375 198.035156 325.746094 192.25 329.550781 C 190.660156 330.625 190.546875 333.402344 185.953125 337.09375 C 185.101562 337.773438 184.648438 337.828125 184.027344 338.507812 C 182.777344 339.871094 183.96875 339.585938 181.871094 340.039062 C 175.121094 341.34375 177.785156 343.667969 172.457031 344.351562 C 170.8125 344.578125 168.144531 345.199219 167.011719 345.882812 C 164.175781 347.640625 162.8125 350.132812 160.375 351.496094 C 159.753906 351.835938 160.320312 351.496094 159.753906 351.890625 C 159.355469 352.175781 158.21875 353.085938 155.726562 351.835938 C 154.136719 351.097656 152.265625 351.667969 150.453125 351.210938 C 150.28125 348.433594 149.144531 351.042969 150.28125 348.378906 C 150.90625 346.847656 150.90625 346.164062 149.941406 345.144531 C 147.390625 342.480469 147.445312 342.480469 148.921875 339.019531 C 150.621094 334.933594 148.238281 334.996094 149.261719 332.15625 C 149.601562 331.363281 149.601562 332.046875 149.714844 330.570312 L 149.882812 320.984375 C 149.65625 319.792969 149.941406 320.871094 149.316406 320.019531 C 148.011719 318.320312 148.578125 318.261719 146.3125 317.355469 C 139.167969 314.40625 138.65625 312.988281 134.34375 307.203125 C 133.722656 306.351562 133.4375 305.730469 132.871094 305.050781 C 123.964844 293.820312 128.277344 299.546875 127.425781 292.683594 C 127.3125 291.4375 127.3125 290.1875 127.371094 288.886719 C 128.789062 287.636719 132.417969 284.0625 132.417969 281.964844 C 132.417969 279.921875 130.601562 275.671875 128.503906 275.671875 C 122.207031 275.671875 125.726562 277.316406 119.601562 273.742188 C 116.027344 271.585938 114.324219 265.972656 110.527344 264.613281 C 109.164062 264.160156 109.164062 264.160156 107.972656 263.535156 C 106.613281 262.796875 106.214844 263.195312 105.195312 262.742188 C 104.230469 262.289062 104.515625 261.777344 103.210938 261.097656 C 101.734375 260.246094 102.1875 260.699219 101.054688 259.566406 C 99.582031 258.035156 97.425781 258.484375 95.441406 258.316406 C 93.625 258.148438 92.433594 256.839844 90.675781 256.105469 C 85.628906 253.949219 80.808594 251.113281 79.277344 245.667969 C 78.253906 241.984375 75.589844 239.828125 73.546875 236.878906 L 65.894531 224.6875 C 65.042969 223.550781 65.78125 224.175781 64.757812 223.894531 C 64.363281 225.082031 64.476562 225.253906 65.15625 226.105469 C 66.855469 228.316406 65.382812 228.316406 66.800781 229.453125 L 68.332031 231.832031 C 68.84375 233.023438 69.410156 233.929688 70.203125 235.234375 C 71.394531 237.164062 75.363281 239.320312 72.359375 241.699219 C 69.351562 241.304688 67.027344 234.949219 65.4375 232.738281 C 64.25 231.152344 63.511719 229.335938 62.660156 227.636719 C 61.070312 224.515625 60.335938 218.730469 57.5 216.574219 C 54.4375 214.363281 49.332031 203.476562 49.332031 200.753906 C 49.332031 196.613281 48.820312 192.472656 49.730469 188.277344 C 50.011719 186.800781 50.636719 187.027344 49.84375 185.328125 C 48.480469 182.488281 50.410156 182.152344 47.859375 179.035156 C 44.285156 174.664062 47.40625 173.246094 45.363281 169.335938 C 44.851562 168.371094 44.625 167.859375 43.71875 167.179688 C 42.128906 165.988281 46.097656 161.566406 40.203125 161.566406 C 40.203125 159.296875 38.785156 156.800781 38.5 154.421875 C 38.328125 153.117188 38.726562 153.570312 38.046875 152.546875 L 36.117188 149.765625 C 34.8125 148.578125 34.417969 149.199219 33.507812 149.941406 C 32.148438 151.074219 32.773438 150.277344 31.640625 150.789062 C 30.503906 151.242188 30.109375 152.945312 29.710938 154.078125 C 28.519531 157.652344 30.277344 160.542969 26.476562 161.507812 C 25.34375 159.523438 26.648438 157.765625 25.511719 156.574219 C 24.832031 160.261719 24.097656 158.277344 23.527344 160.828125 C 26.648438 144.550781 32.207031 129.125 39.804688 114.890625 C 39.578125 115.457031 39.519531 115.910156 39.578125 116.191406 C 40.769531 116.933594 42.128906 115.515625 43.546875 115.058594 C 45.417969 114.492188 46.667969 114.660156 48.933594 114.550781 C 49.445312 113.695312 49.503906 113.191406 50.011719 112.339844 C 50.523438 111.488281 51.148438 110.976562 51.660156 110.351562 C 53.984375 107.746094 54.4375 108.480469 57.5 108.480469 C 59.3125 108.480469 62.09375 106.382812 63.792969 106.324219 C 65.097656 106.324219 67.707031 107.003906 69.066406 107.632812 C 70.089844 108.027344 69.917969 107.914062 70.542969 108.480469 L 70.261719 111.144531 C 70.941406 111.488281 73.492188 110.296875 76.328125 110.296875 C 77.6875 110.296875 77.40625 111.429688 78.425781 112.109375 C 78.878906 112.449219 78.9375 112.394531 79.558594 112.507812 C 79.617188 109.957031 80.128906 110.242188 78.652344 108.59375 C 77.347656 107.121094 78.085938 107.460938 75.988281 107.460938 C 74.625 107.460938 75.078125 109.332031 72.8125 106.835938 C 70.941406 104.738281 71.222656 106.097656 69.125 105.019531 C 68.726562 102.921875 69.863281 102.1875 71.507812 101.730469 C 73.945312 101.109375 73.4375 101.335938 74.910156 99.691406 C 72.925781 98.726562 72.640625 100.429688 69.863281 99.859375 C 69.066406 98.78125 69.863281 99.804688 69.464844 98.957031 L 67.992188 96.460938 C 67.140625 97.707031 66.628906 97.535156 65.496094 98.726562 C 64.476562 99.859375 64.078125 100.089844 62.09375 99.691406 C 61.921875 95.664062 65.4375 89.59375 68.21875 86.589844 C 69.296875 85.457031 72.242188 85.117188 74.003906 85.117188 C 75.648438 85.117188 78.199219 87.273438 79.050781 88.007812 C 79.957031 88.746094 80.410156 89.257812 81.203125 89.878906 L 82.28125 90.789062 C 83.132812 91.695312 82 91.410156 83.585938 91.695312 C 83.644531 91.636719 83.699219 91.46875 83.699219 91.523438 C 83.871094 92.148438 83.871094 91.125 83.871094 91.015625 C 84.609375 88.804688 84.777344 86.535156 85.796875 84.378906 C 86.648438 82.734375 90.789062 79.273438 90.789062 83.1875 C 90.789062 84.664062 89.769531 85.683594 88.464844 86.023438 C 88.464844 88.0625 88.351562 90.449219 88.464844 92.433594 C 88.632812 96.628906 93.058594 93.792969 91.808594 98.160156 C 91.527344 99.238281 90.84375 99.464844 90.050781 100.03125 C 90.960938 104.683594 88.746094 103.433594 86.707031 104.117188 L 86.027344 104.398438 L 85.796875 104.511719 L 85.402344 104.738281 L 85.175781 104.851562 C 85.175781 104.851562 85.0625 104.90625 85.003906 104.964844 C 85.402344 105.816406 86.761719 106.496094 87.558594 107.289062 L 91.527344 107.234375 C 92.773438 105.929688 93.570312 105.363281 94.417969 103.261719 C 95.269531 101.164062 95.15625 100.089844 96.746094 98.386719 C 99.917969 98.386719 97.878906 99.238281 99.804688 99.859375 C 100.769531 99.859375 102.53125 99.976562 101.90625 98.558594 C 101.679688 97.992188 99.636719 97.480469 99.636719 96.0625 C 99.636719 90.050781 100.828125 91.46875 101.90625 89.59375 C 102.984375 87.726562 101.792969 88.179688 105.082031 88.179688 C 106.441406 88.179688 107.292969 92.375 107.292969 93.734375 C 107.292969 96.289062 106.441406 94.929688 107.859375 97.195312 C 108.769531 98.667969 108.484375 99.691406 109.050781 101.054688 C 110.296875 100.65625 110.867188 98.898438 111.207031 97.59375 C 111.433594 97.816406 111.546875 97.875 111.605469 97.875 C 111.605469 97.933594 111.605469 98.046875 111.773438 98.328125 C 111.886719 98.613281 111.941406 99.011719 112.058594 99.292969 C 113.078125 99.179688 112.792969 98.957031 113.589844 99.347656 C 113.589844 101.164062 112.398438 103.605469 113.191406 105.417969 C 114.269531 105.757812 114.496094 105.53125 115.402344 105.082031 C 115.628906 103.886719 115.574219 102.753906 116.085938 101.730469 C 116.652344 100.484375 117.386719 100.3125 117.953125 99.347656 C 118.523438 97.027344 115.855469 92.601562 125.15625 96.402344 C 125.214844 97.992188 124.816406 99.632812 124.816406 100.996094 C 124.816406 105.136719 126.234375 105.304688 123.003906 108.367188 C 121.980469 109.277344 122.207031 109.84375 120.789062 111.261719 C 120.960938 112.507812 121.1875 112.164062 121.132812 113.128906 C 121.015625 114.15625 120.675781 113.925781 120.507812 115.175781 C 122.152344 117.273438 125.554688 119.03125 125.101562 122.320312 C 123.058594 123.398438 122.664062 121.753906 119.882812 121.46875 C 119.316406 123.738281 119.542969 123.171875 116.933594 123.511719 C 115.289062 123.738281 113.703125 122.886719 113.472656 121.582031 C 113.078125 119.652344 114.890625 119.539062 114.890625 117.839844 C 114.890625 116.535156 114.722656 115.796875 113.984375 115.226562 C 112.339844 116.820312 115.289062 117.839844 109.390625 121.8125 C 104.289062 125.269531 107.746094 126.574219 104.230469 127.875 C 100.203125 129.40625 102.585938 128.839844 99.46875 134.398438 C 97.878906 137.292969 96.519531 139.046875 98.445312 142.964844 C 100.375 144.039062 100.035156 142.28125 100.714844 144.949219 C 101.394531 147.898438 101.960938 148.578125 104.796875 149.484375 " fill-opacity="1" fill-rule="evenodd"/></g></svg>