<svg xmlns="http://www.w3.org/2000/svg" xmlns:xlink="http://www.w3.org/1999/xlink" width="500" zoomAndPan="magnify" viewBox="0 0 375 374.999991" height="500" preserveAspectRatio="xMidYMid meet" version="1.0"><defs><clipPath id="6952d48ae3"><path d="M 39 16 L 362 16 L 362 365.648438 L 39 365.648438 Z M 39 16 " clip-rule="nonzero"/></clipPath><clipPath id="95d533d33d"><path d="M 23.421875 29 L 262 29 L 262 353 L 23.421875 353 Z M 23.421875 29 " clip-rule="nonzero"/></clipPath></defs><g clip-path="url(#6952d48ae3)"><path fill="#5eb23f" d="M 202.640625 365.652344 C 342.492188 304.601562 240.144531 211.8125 316.453125 99.015625 C 323.207031 153.089844 336.765625 211.757812 306.753906 268.949219 C 337.445312 220.597656 352.3125 118.96875 308.792969 74.132812 C 297.449219 62.457031 284.226562 52.140625 269.363281 43.691406 C 189.820312 -1.3125 89.910156 22.609375 39.015625 96.464844 C 88.828125 18.867188 191.296875 -7.09375 272.539062 38.933594 C 289.105469 48.285156 303.519531 59.960938 315.660156 73.28125 C 319.460938 77.417969 323.035156 81.726562 326.324219 86.207031 C 367.0625 140.167969 374.324219 215.214844 338.863281 277.734375 C 309.476562 329.488281 257.734375 360.550781 202.640625 365.652344 " fill-opacity="1" fill-rule="evenodd"/></g><g clip-path="url(#95d533d33d)"><path fill="#003c25" d="M 108.972656 54.621094 C 108.460938 57.117188 109.253906 59.613281 110.390625 61.140625 C 111.410156 60.804688 112.773438 59.726562 113.566406 58.988281 C 113.511719 57.34375 112.832031 57.230469 112.148438 55.929688 C 111.183594 54.171875 111.070312 54.511719 108.972656 54.621094 Z M 102.671875 59.785156 C 104.035156 60.460938 105.398438 60.460938 106.136719 58.988281 C 107.214844 55.25 103.128906 54.171875 101.367188 56.664062 C 100.347656 58.195312 101.367188 59.105469 102.671875 59.785156 Z M 101.140625 82.0625 C 101.480469 80.699219 101.878906 81.777344 101.597656 78.65625 C 99.667969 78.035156 98.191406 78.320312 96.832031 79.789062 C 94.730469 82.0625 96.433594 82.453125 95.75 84.382812 C 94.050781 84.609375 94.277344 83.984375 92.40625 84.609375 C 91.101562 88.066406 94.050781 87.785156 95.527344 89.03125 C 96.09375 89.484375 96.320312 89.9375 96.832031 90.332031 C 103.015625 89.429688 100.800781 83.417969 101.140625 82.0625 Z M 112.375 76.332031 C 110.617188 75.824219 108.632812 74.632812 105.398438 76.445312 C 103.921875 77.1875 103.753906 81.152344 103.753906 82.796875 L 103.867188 84.664062 L 106.816406 84.839844 C 107.894531 80.417969 107.441406 82.964844 110.164062 80.925781 C 111.128906 80.132812 111.015625 79.507812 111.582031 78.65625 C 112.488281 77.296875 112.433594 78.144531 112.375 76.332031 Z M 111.128906 67.265625 C 111.128906 70.324219 111.015625 70.777344 112.320312 72.878906 L 126.671875 71.003906 C 128.488281 70.835938 132.460938 72.3125 132.460938 66.300781 C 132.460938 64.660156 130.871094 63.75 128.886719 63.75 C 125.539062 63.75 121.738281 68.003906 118.105469 66.8125 C 116.175781 66.191406 118.164062 66.472656 115.324219 66.128906 L 115.097656 66.074219 L 114.703125 65.960938 C 115.496094 64.203125 116.175781 66.527344 116.175781 63.980469 C 116.175781 62.332031 114.25 62.273438 112.714844 62.21875 C 111.015625 62.164062 109.539062 61.9375 108.121094 62.105469 C 106.363281 62.390625 106.816406 64.203125 107.894531 65.167969 C 108.859375 66.015625 110.445312 66.015625 111.128906 67.265625 Z M 94.84375 67.773438 C 94.277344 70.15625 94.675781 71.234375 97.738281 73.332031 C 98.417969 73.84375 99.609375 74.011719 100.6875 73.726562 C 103.128906 73.101562 102.902344 71.800781 102.957031 71.347656 L 106.078125 73.613281 C 109.085938 72.765625 110.332031 71.6875 108.746094 68.910156 L 106.023438 68.679688 C 105 66.8125 104.714844 64.035156 101.597656 66.015625 C 99.382812 67.4375 98.191406 67.773438 94.84375 67.773438 Z M 73 77.808594 C 73.851562 81.097656 79.867188 82.511719 83.101562 80.925781 C 85.484375 79.789062 84.914062 78.375 87.1875 77.691406 C 89.058594 77.1875 88.148438 77.355469 89.457031 76.390625 C 90.191406 75.824219 91.441406 75.542969 92.066406 75.03125 C 92.007812 72.59375 91.667969 72.820312 90.078125 71.914062 C 90.417969 71.003906 90.363281 71.347656 90.136719 69.703125 C 85.992188 69.535156 87.980469 71.742188 86.390625 74.632812 L 82.644531 72.535156 C 81.058594 71.289062 80.71875 70.835938 78.730469 72.3125 C 76.917969 73.667969 73.738281 75.878906 73 77.808594 Z M 147.667969 252.84375 C 145.28125 251.484375 138.304688 250.464844 137.339844 256.585938 C 138.984375 256.867188 138.925781 256.359375 140.515625 257.039062 C 143.410156 258.171875 147.324219 256.984375 149.027344 255.734375 C 149.027344 254.597656 148.855469 253.523438 147.667969 252.84375 Z M 136.773438 250.40625 C 135.46875 249.953125 134.671875 249.15625 133.253906 248.421875 C 132.007812 247.800781 130.53125 247.230469 129.398438 246.664062 C 119.128906 241.789062 119.867188 244.457031 116.175781 244.511719 L 116.175781 247.574219 C 121.453125 247.175781 122.417969 247.007812 128.261719 250.121094 C 131.609375 251.9375 130.25 252.332031 132.347656 252.5 L 133.085938 252.5625 C 133.480469 252.675781 136.488281 255.5625 136.773438 250.40625 Z M 241.050781 113.972656 C 242.527344 113.628906 242.867188 113.175781 244.0625 114.820312 C 243.832031 115.785156 244.457031 115.273438 242.8125 115.671875 C 243.832031 121.113281 244.117188 116.917969 244.34375 120.261719 C 246.273438 120.660156 245.703125 120.207031 246.273438 122.246094 C 251.039062 122.925781 248.996094 123.890625 251.4375 123.890625 C 253.023438 123.890625 255.859375 122.585938 256.882812 121.90625 C 258.300781 121 259.886719 119.015625 261.082031 118.5625 C 261.082031 115.671875 260.570312 114.195312 258.980469 112.554688 C 254.839844 108.300781 255.75 111.476562 253.761719 111.476562 L 246.496094 111.476562 C 244.796875 111.476562 246.78125 110.230469 243.097656 109.777344 C 241.902344 111.363281 241.394531 111.25 241.050781 113.972656 Z M 178.019531 76.277344 C 178.644531 79.964844 175.238281 80.300781 177.792969 83.417969 C 180.230469 83.25 179.265625 82.0625 182.101562 81.777344 C 182.445312 82.34375 182.558594 82.34375 182.839844 82.964844 C 183.238281 83.929688 182.785156 83.703125 183.464844 84.382812 C 184.429688 85.40625 186.019531 84.269531 185.167969 87.105469 C 182.953125 86.875 183.863281 85.574219 181.765625 85.574219 C 176.542969 85.574219 178.472656 93.960938 181.082031 93.960938 C 182.839844 93.960938 183.691406 93.339844 185.054688 92.773438 C 185.054688 91.355469 184.941406 91.355469 184.375 90.394531 L 186.074219 90.394531 C 188.003906 96.34375 182.613281 95.039062 181.59375 97.871094 C 181.367188 98.550781 180.742188 99.0625 180.742188 99.96875 C 180.855469 114.484375 181.308594 105.808594 182.613281 111.363281 C 182.898438 112.609375 183.183594 114.765625 183.296875 116.296875 C 185.109375 116.183594 185.621094 115.445312 187.152344 115.953125 C 187.097656 116.917969 186.074219 117.257812 186.074219 119.074219 C 186.074219 122.925781 186.472656 123.605469 188.914062 126.4375 C 189.648438 127.292969 190.445312 127.6875 190.785156 128.539062 C 191.636719 130.976562 190.160156 130.921875 193.5625 131.710938 C 199.519531 133.132812 199.40625 138.0625 204.117188 134.488281 C 204.171875 131.03125 205.308594 130.070312 205.421875 127.347656 C 205.535156 124.003906 206.101562 122.8125 208.199219 121.453125 C 208.199219 119.296875 208.03125 117.429688 208.597656 115.558594 C 209.449219 112.953125 209.902344 114.539062 210.644531 111.363281 C 214.160156 110.683594 216.371094 110.796875 219.039062 108.8125 C 222.332031 106.320312 223.691406 102.976562 224.882812 102.066406 C 224.9375 102.011719 225.5625 101.613281 225.679688 101.558594 C 227.378906 100.535156 229.707031 100.367188 231.976562 99.855469 C 240.714844 98.101562 235.605469 96.230469 240.882812 96.230469 C 241.449219 95.152344 242.128906 94.527344 242.699219 93.511719 C 243.378906 92.261719 243.210938 91.296875 244.285156 90.503906 L 243.265625 87.386719 C 242.867188 85.121094 242.640625 86.707031 241.734375 85.0625 C 241.394531 83.761719 242.246094 80.925781 242.128906 80.1875 C 241.847656 78.601562 241.222656 80.359375 241.222656 78.488281 C 241.222656 77.128906 241.675781 77.46875 241.902344 77.242188 C 242.414062 76.675781 242.582031 76.617188 242.527344 76.675781 C 242.8125 76.332031 242.46875 76.730469 242.8125 76.164062 C 243.265625 75.425781 242.980469 75.65625 243.605469 74.914062 C 246.894531 70.609375 243.777344 71.347656 243.265625 68.625 C 244.851562 68.792969 244.515625 69.871094 246.214844 70.492188 C 247.347656 69.359375 247.691406 69.078125 247.519531 66.925781 C 242.640625 65.792969 245.363281 66.191406 242.46875 63.695312 C 242.300781 63.582031 236.570312 59.671875 240.203125 59.671875 C 241.675781 59.671875 242.1875 60.636719 243.550781 59.671875 C 244.851562 58.023438 241.394531 56.382812 240.769531 55.871094 C 239.519531 54.964844 237.703125 54 237.703125 52.074219 C 237.703125 46.6875 242.1875 45.15625 242.246094 41.023438 C 226.1875 35.976562 231.859375 40.113281 228.851562 40.34375 L 228.964844 37.222656 C 224.316406 35.636719 226.753906 36.546875 223.125 38.070312 C 222.332031 37.050781 223.011719 37.394531 222.386719 36.203125 C 221.933594 35.296875 221.875 35.636719 221.421875 34.898438 C 221.023438 34.332031 220.914062 33.707031 220.625 33.371094 C 220.117188 32.691406 219.71875 32.804688 219.378906 32.238281 L 243.492188 39.492188 C 230.78125 34.558594 217.390625 31.160156 203.4375 29.511719 C 203.492188 29.570312 203.550781 29.570312 203.550781 29.570312 C 202.074219 32.691406 199.011719 30.195312 197.59375 30.195312 C 194.980469 30.195312 196.96875 30.929688 194.015625 31.273438 C 188.6875 31.953125 183.40625 31.839844 178.132812 31.496094 C 175.296875 31.328125 173.59375 32.632812 170.644531 32.179688 C 168.601562 31.839844 166.957031 30.988281 164.628906 31.273438 C 158.386719 32.125 153.054688 33.425781 146.929688 34.445312 C 140.914062 35.46875 136.886719 38.582031 130.472656 38.582031 C 129.28125 39.890625 130.191406 40.171875 127.863281 40.34375 C 126.21875 40.511719 125.367188 40.792969 124.859375 42.15625 C 125.652344 43.800781 126.21875 42.777344 126.84375 44.421875 C 123.894531 44.480469 125.367188 43.6875 123.609375 43.6875 L 120.941406 43.6875 C 120.203125 44.136719 115.835938 48.277344 115.15625 48.957031 C 113.90625 50.316406 114.417969 51.109375 115.210938 52.867188 C 117.140625 57.007812 118.105469 55.871094 120.433594 54.910156 C 121.625 56.269531 121.339844 55.761719 121.285156 58.761719 C 120.261719 59.496094 118.898438 60.292969 117.992188 61.3125 C 118.046875 61.371094 118.332031 61.765625 118.445312 61.882812 C 120.546875 64.203125 128.375 62.105469 129.851562 60.746094 C 131.554688 61.539062 131.382812 61.992188 133.707031 61.203125 C 139.15625 59.214844 136.089844 58.421875 138.132812 54.679688 C 139.382812 52.472656 139.550781 52.921875 141.425781 52.527344 C 143.523438 52.019531 144.601562 45.953125 149.480469 43.570312 C 152.488281 42.15625 153.507812 41.191406 156.121094 39.035156 C 158.105469 37.449219 157.878906 38.242188 157.933594 35.183594 C 159.578125 35.070312 161 35.296875 163.042969 34.671875 C 164.347656 34.273438 166.332031 33.539062 167.863281 34.273438 C 167.808594 35.636719 167.976562 35.070312 165.820312 35.804688 C 163.269531 36.65625 161.394531 38.015625 158.898438 38.753906 L 158.957031 41.132812 C 160.203125 41.191406 160.941406 41.304688 161.566406 42.15625 C 160.941406 43.515625 160.714844 42.210938 159.636719 44.421875 C 154.871094 44.421875 154.417969 46.402344 150.726562 47.484375 C 149.253906 47.933594 148.234375 47.3125 148.234375 48.785156 C 148.234375 54.964844 154.074219 50.828125 158.898438 52.359375 C 157.59375 55.816406 153.054688 53.207031 151.070312 53.71875 C 150.273438 53.945312 149.820312 54.453125 149.253906 54.851562 C 149.421875 58.082031 150.21875 56.609375 151.75 57.34375 C 152.65625 57.742188 152.941406 59.441406 153.453125 60.351562 C 157.707031 59.785156 161.90625 59.160156 166.21875 59.160156 C 168.996094 59.160156 173.195312 63.804688 174.160156 65.902344 C 174.730469 67.148438 174.386719 66.414062 175.070312 67.324219 C 175.804688 68.398438 177.847656 75.371094 178.019531 76.277344 Z M 132.234375 91.75 C 133.878906 93 134.730469 95.4375 134.730469 97.988281 C 136.375 97.988281 138.984375 98.15625 138.984375 99.746094 C 137.851562 100.765625 135.296875 99.855469 133.539062 100.535156 C 132.234375 101.386719 131.667969 105.808594 135.410156 105.523438 C 138.816406 105.242188 138.984375 102.238281 141.3125 102.410156 C 141.652344 108.359375 139.835938 105.523438 138.246094 110.34375 C 137.964844 111.25 138.132812 111.816406 137.964844 112.953125 C 132.574219 113.234375 130.472656 113.460938 130.472656 118.050781 C 135.410156 119.640625 133.824219 118.503906 138.472656 117.316406 C 144.261719 121.792969 139.664062 122.417969 149.3125 126.726562 C 151.464844 127.6875 152.261719 128.480469 154.246094 127.292969 C 153.679688 123.210938 149.765625 123.269531 149.539062 121.226562 C 152.488281 121.453125 154.417969 123.492188 157.367188 124.171875 C 159.410156 118.335938 157.765625 118.226562 155.835938 115.953125 C 152.828125 112.441406 152.148438 112.839844 152.316406 108.074219 C 156.515625 108.753906 155.097656 114.140625 159.636719 114.027344 C 162.929688 113.972656 164.347656 106.261719 164.234375 106.035156 C 163.382812 104.054688 162.53125 105.1875 161.109375 104.054688 L 158.332031 101.558594 C 153.054688 97.136719 153.339844 100.367188 153.28125 96.230469 C 154.191406 96.171875 154.359375 96.117188 154.816406 95.835938 C 154.816406 95.605469 153.90625 89.257812 153.453125 89.996094 C 153.394531 90.105469 153.167969 89.882812 153 89.769531 C 151.242188 88.804688 152.089844 89.203125 150.957031 88.125 C 149.421875 86.761719 149.421875 88.007812 147.890625 86.59375 C 145.113281 83.984375 146.585938 82.851562 142.050781 83.761719 C 141.539062 83.019531 141.027344 82.625 140.347656 81.886719 C 139.4375 80.8125 138.417969 78.542969 137.738281 77.1875 C 136.886719 75.484375 137.167969 77.011719 137.226562 74.746094 C 132.40625 73.554688 136.714844 73.898438 128.886719 73.898438 C 127.46875 73.898438 128.429688 74.519531 125.878906 74.632812 C 125.199219 74.691406 125.085938 74.578125 124.460938 74.800781 C 123.609375 75.089844 124.6875 74.972656 123.15625 75.597656 C 119.980469 71.570312 114.304688 78.714844 112.832031 81.945312 C 112.375 82.796875 111.582031 85.574219 111.183594 86.253906 C 113.113281 87.785156 113.339844 86.707031 114.929688 88.972656 C 113.738281 90.960938 113.792969 89.714844 112.945312 92.828125 C 117.367188 93.847656 123.78125 93.90625 128.546875 93.339844 C 131.4375 92.941406 130.53125 92.433594 132.234375 91.75 Z M 104.828125 149.398438 C 108.066406 150.535156 110.957031 152.171875 113.792969 153.988281 C 116.460938 155.691406 118.671875 154.160156 120.433594 156.199219 C 121.398438 158.410156 118.84375 164.53125 122.417969 166.460938 L 125.253906 168.101562 C 129.28125 166.121094 125.878906 163.113281 125.878906 160 L 126.390625 156.878906 C 126.957031 155.066406 126.164062 156.085938 127.921875 155.40625 C 130.078125 154.667969 129.398438 154.386719 130.417969 152.347656 C 131.496094 150.25 131.269531 150.644531 130.757812 147.980469 C 129.90625 143.21875 126.957031 142.199219 128.546875 140.214844 C 130.078125 138.289062 129.964844 139.363281 129.90625 135.90625 C 129.90625 134.039062 129.964844 132.167969 129.90625 130.296875 C 129.90625 125.703125 128.320312 126.613281 140.121094 126.726562 C 140.914062 127.914062 143.125 130.296875 144.089844 130.976562 C 145.453125 131.824219 145.847656 131.257812 146.53125 132.847656 C 148.515625 137.382812 145.90625 139.820312 145.738281 141.519531 C 146.929688 141.519531 147.835938 141.121094 148.574219 141.351562 C 150.671875 141.917969 150.558594 143.898438 153.394531 140.894531 C 155.890625 138.289062 154.074219 137.324219 155.550781 135.511719 C 157.535156 133.074219 159.238281 137.210938 159.863281 138.628906 C 160.828125 140.609375 161.960938 142.253906 162.757812 144.351562 C 162.871094 144.636719 162.984375 144.917969 163.097656 145.316406 C 163.382812 145.996094 163.550781 146.050781 163.664062 146.449219 C 164.289062 148.605469 161.28125 148.605469 165.085938 151.550781 C 166.273438 152.457031 166.898438 153.535156 167.863281 154.667969 L 172.003906 154.894531 L 173.421875 158.070312 C 173.539062 158.410156 173.707031 158.976562 173.933594 159.257812 C 175.070312 160.734375 173.820312 159.316406 174.84375 159.941406 C 175.582031 160.394531 175.296875 160.054688 175.75 160.679688 C 177.453125 162.832031 176.714844 166.515625 176.714844 169.574219 C 176.714844 171.503906 175.464844 170.539062 175.75 173.601562 C 177.621094 174.28125 177.453125 174.167969 179.835938 174.226562 C 180.515625 175.871094 180.460938 174.792969 180.800781 177.171875 C 181.027344 178.816406 181.421875 178.871094 182.332031 179.949219 C 183.804688 181.707031 183.578125 184.484375 180.742188 183.859375 C 176.316406 182.898438 177.339844 180.515625 167.808594 180.515625 C 168.261719 178.871094 169.167969 177.96875 169.792969 176.4375 C 170.585938 174.507812 172.457031 171.21875 172.289062 169.464844 C 169.113281 168.785156 168.941406 170.371094 168.660156 171.675781 C 167.75 171.785156 161.792969 172.523438 161.28125 172.863281 C 161.679688 173.375 162.191406 173.429688 162.984375 173.429688 L 162.929688 176.492188 C 158.21875 176.492188 159.578125 176.4375 157.535156 173.941406 C 156.121094 172.183594 153.339844 173.207031 151.464844 173.996094 C 148.460938 175.191406 148.402344 175.074219 146.929688 177.738281 C 145.679688 179.949219 143.582031 180.175781 143.410156 182.613281 C 146.246094 182.332031 145.847656 179.613281 149.253906 177.398438 C 150.617188 176.492188 153.90625 174.394531 155.722656 175.074219 C 159.296875 176.378906 154.191406 178.816406 157.820312 181.933594 C 158.617188 182.558594 159.695312 182.726562 160.542969 183.179688 C 163.097656 184.3125 164.628906 183.914062 167.296875 183.347656 C 167.296875 186.640625 167.410156 186.070312 165.652344 187.832031 C 164.289062 189.078125 163.664062 189.359375 161.566406 189.699219 C 159.695312 189.984375 159.410156 191 157.933594 192.023438 C 156.121094 193.269531 156.121094 193.210938 153.453125 193.210938 C 152.886719 190.039062 154.53125 191.625 154.53125 189.246094 C 151.125 189.019531 152.941406 190.097656 150.160156 190.832031 C 148.628906 191.230469 147.890625 191.34375 146.757812 192.363281 L 144.207031 194.742188 C 143.582031 195.765625 144.148438 197.578125 144.148438 199.050781 C 142.273438 199.675781 140.515625 200.296875 138.984375 201.488281 C 136.773438 203.136719 137.113281 203.703125 135.921875 206.363281 C 135.128906 208.179688 134.332031 209.707031 133.652344 212.035156 C 131.835938 218.210938 132.40625 216.167969 129.167969 219.398438 C 127.355469 221.214844 124.0625 222.6875 122.757812 224.898438 C 120.09375 229.546875 125.425781 231.359375 125.367188 238.902344 L 125.3125 240.203125 C 124.347656 240.203125 123.328125 240.203125 122.589844 239.921875 C 121.285156 239.410156 119.867188 235.726562 119.355469 234.25 C 117.3125 228.753906 117.3125 227.5625 106.589844 228.867188 L 106.136719 230.792969 C 102.277344 231.359375 102.21875 229.261719 98.816406 229.261719 C 96.945312 229.261719 92.804688 232.664062 92.804688 234.308594 C 92.804688 245.476562 91.835938 242.46875 95.070312 248.589844 C 95.921875 250.179688 96.601562 251.996094 98.476562 252.445312 C 102.617188 253.410156 105.679688 250.917969 106.304688 246.777344 C 110.050781 246.777344 109.371094 246.378906 111.921875 247.910156 C 111.75 251.085938 110.84375 251.539062 110.84375 257.550781 C 112.886719 258.796875 116.234375 259.023438 118.617188 260.042969 C 121.453125 261.289062 120.546875 265.203125 120.546875 268.9375 C 121 269.734375 122.078125 270.699219 122.703125 271.152344 C 124.121094 272.34375 124.234375 271.945312 125.992188 271.777344 C 131.496094 271.152344 129.167969 272.570312 132.855469 273.476562 C 134.332031 272.570312 134.898438 270.8125 137.054688 269.847656 C 137.964844 269.507812 139.097656 269.226562 140.0625 268.882812 C 143.46875 267.636719 138.589844 264.636719 148.742188 269.5625 L 151.523438 271.039062 C 154.699219 272.511719 160.375 270.527344 162.417969 271.777344 C 163.722656 272.570312 162.8125 272.792969 163.835938 273.644531 C 164.628906 274.210938 166.558594 274.496094 168.316406 275.800781 C 169.621094 276.765625 173.195312 279.996094 174.160156 280.222656 C 178.871094 281.355469 183.976562 279.429688 187.492188 286.628906 C 190.160156 292.238281 186.414062 290.59375 192.882812 291.839844 C 194.246094 292.070312 195.039062 292.40625 196.460938 292.859375 C 201.847656 294.503906 200.941406 295.582031 204.855469 295.015625 C 207.917969 294.5625 215.523438 298.644531 218.359375 299.664062 C 218.359375 306.296875 217.675781 305.277344 213.820312 308.90625 C 212.398438 310.207031 210.8125 310.941406 210.1875 312.25 C 209.792969 312.871094 209.226562 316.441406 208.769531 317.742188 C 207.75 320.636719 205.59375 324.207031 203.039062 325.847656 C 201.675781 326.757812 198.105469 325.566406 192.316406 329.367188 C 190.726562 330.441406 190.613281 333.21875 186.019531 336.90625 C 185.167969 337.585938 184.714844 337.640625 184.089844 338.320312 C 182.839844 339.683594 184.035156 339.398438 181.933594 339.851562 C 175.183594 341.152344 177.847656 343.476562 172.515625 344.160156 C 170.871094 344.386719 168.203125 345.007812 167.070312 345.691406 C 164.234375 347.449219 162.871094 349.9375 160.429688 351.300781 C 159.808594 351.640625 160.375 351.300781 159.808594 351.695312 C 159.410156 351.980469 158.273438 352.890625 155.777344 351.640625 C 154.191406 350.902344 152.316406 351.472656 150.503906 351.015625 C 150.332031 348.238281 149.195312 350.847656 150.332031 348.183594 C 150.957031 346.652344 150.957031 345.972656 149.992188 344.953125 C 147.4375 342.289062 147.496094 342.289062 148.972656 338.832031 C 150.671875 334.75 148.289062 334.808594 149.3125 331.972656 C 149.652344 331.179688 149.652344 331.859375 149.765625 330.382812 L 149.933594 320.804688 C 149.707031 319.617188 149.992188 320.691406 149.367188 319.839844 C 148.0625 318.140625 148.628906 318.085938 146.363281 317.179688 C 139.210938 314.230469 138.703125 312.816406 134.390625 307.03125 C 133.765625 306.179688 133.480469 305.558594 132.914062 304.878906 C 124.007812 293.652344 128.320312 299.378906 127.46875 292.523438 C 127.355469 291.273438 127.355469 290.027344 127.410156 288.726562 C 128.828125 287.476562 132.460938 283.90625 132.460938 281.808594 C 132.460938 279.765625 130.644531 275.519531 128.546875 275.519531 C 122.246094 275.519531 125.765625 277.164062 119.636719 273.589844 C 116.0625 271.433594 114.363281 265.824219 110.558594 264.460938 C 109.199219 264.011719 109.199219 264.011719 108.007812 263.386719 C 106.644531 262.648438 106.246094 263.046875 105.226562 262.59375 C 104.261719 262.140625 104.546875 261.628906 103.242188 260.949219 C 101.765625 260.101562 102.21875 260.550781 101.085938 259.417969 C 99.609375 257.886719 97.453125 258.339844 95.46875 258.171875 C 93.652344 258 92.460938 256.695312 90.703125 255.960938 C 85.652344 253.808594 80.832031 250.972656 79.300781 245.53125 C 78.277344 241.847656 75.613281 239.691406 73.566406 236.746094 L 65.910156 224.558594 C 65.058594 223.421875 65.796875 224.050781 64.773438 223.765625 C 64.378906 224.953125 64.492188 225.125 65.171875 225.976562 C 66.875 228.1875 65.398438 228.1875 66.816406 229.320312 L 68.351562 231.703125 C 68.859375 232.890625 69.425781 233.796875 70.222656 235.101562 C 71.414062 237.027344 75.386719 239.183594 72.378906 241.5625 C 69.371094 241.167969 67.042969 234.816406 65.457031 232.605469 C 64.265625 231.019531 63.527344 229.207031 62.675781 227.507812 C 61.085938 224.386719 60.347656 218.609375 57.511719 216.453125 C 54.449219 214.242188 49.34375 203.359375 49.34375 200.640625 C 49.34375 196.5 48.832031 192.363281 49.738281 188.167969 C 50.023438 186.691406 50.648438 186.921875 49.855469 185.222656 C 48.492188 182.386719 50.421875 182.046875 47.867188 178.929688 C 44.292969 174.5625 47.414062 173.148438 45.371094 169.238281 C 44.859375 168.273438 44.632812 167.761719 43.726562 167.085938 C 42.136719 165.894531 46.109375 161.472656 40.207031 161.472656 C 40.207031 159.203125 38.789062 156.710938 38.507812 154.332031 C 38.335938 153.027344 38.734375 153.480469 38.050781 152.457031 L 36.121094 149.679688 C 34.820312 148.492188 34.421875 149.113281 33.515625 149.851562 C 32.152344 150.984375 32.777344 150.191406 31.640625 150.703125 C 30.507812 151.152344 30.109375 152.855469 29.710938 153.988281 C 28.519531 157.558594 30.28125 160.449219 26.476562 161.414062 C 25.34375 159.433594 26.648438 157.675781 25.511719 156.480469 C 24.832031 160.167969 24.097656 158.183594 23.527344 160.734375 C 26.648438 144.464844 32.210938 129.046875 39.8125 114.820312 C 39.582031 115.386719 39.527344 115.839844 39.582031 116.125 C 40.777344 116.863281 42.136719 115.445312 43.554688 114.992188 C 45.429688 114.421875 46.675781 114.59375 48.945312 114.484375 C 49.457031 113.628906 49.511719 113.121094 50.023438 112.273438 C 50.535156 111.421875 51.160156 110.910156 51.667969 110.285156 C 53.996094 107.679688 54.449219 108.417969 57.511719 108.417969 C 59.328125 108.417969 62.109375 106.320312 63.808594 106.261719 C 65.113281 106.261719 67.726562 106.941406 69.085938 107.566406 C 70.109375 107.964844 69.9375 107.851562 70.5625 108.417969 L 70.277344 111.078125 C 70.957031 111.421875 73.511719 110.230469 76.347656 110.230469 C 77.710938 110.230469 77.425781 111.363281 78.449219 112.042969 C 78.902344 112.382812 78.960938 112.328125 79.582031 112.441406 C 79.640625 109.890625 80.152344 110.175781 78.675781 108.53125 C 77.371094 107.054688 78.109375 107.398438 76.007812 107.398438 C 74.648438 107.398438 75.101562 109.265625 72.832031 106.769531 C 70.957031 104.675781 71.242188 106.035156 69.144531 104.957031 C 68.746094 102.859375 69.882812 102.125 71.527344 101.667969 C 73.964844 101.046875 73.457031 101.277344 74.929688 99.632812 C 72.945312 98.667969 72.660156 100.367188 69.882812 99.800781 C 69.085938 98.722656 69.882812 99.746094 69.484375 98.894531 L 68.007812 96.402344 C 67.160156 97.648438 66.648438 97.476562 65.511719 98.667969 C 64.492188 99.800781 64.09375 100.027344 62.109375 99.632812 C 61.9375 95.605469 65.457031 89.539062 68.234375 86.539062 C 69.3125 85.40625 72.261719 85.0625 74.023438 85.0625 C 75.667969 85.0625 78.222656 87.21875 79.070312 87.953125 C 79.980469 88.691406 80.433594 89.203125 81.226562 89.824219 L 82.308594 90.730469 C 83.15625 91.636719 82.023438 91.355469 83.613281 91.636719 C 83.667969 91.582031 83.726562 91.410156 83.726562 91.46875 C 83.894531 92.09375 83.894531 91.070312 83.894531 90.960938 C 84.632812 88.75 84.800781 86.480469 85.824219 84.328125 C 86.675781 82.683594 90.816406 79.222656 90.816406 83.132812 C 90.816406 84.609375 89.796875 85.628906 88.492188 85.972656 C 88.492188 88.007812 88.375 90.394531 88.492188 92.375 C 88.660156 96.570312 93.085938 93.734375 91.835938 98.101562 C 91.554688 99.179688 90.871094 99.402344 90.078125 99.96875 C 90.988281 104.621094 88.773438 103.371094 86.730469 104.054688 L 86.050781 104.335938 L 85.824219 104.449219 L 85.425781 104.675781 L 85.199219 104.789062 C 85.199219 104.789062 85.085938 104.84375 85.03125 104.902344 C 85.425781 105.753906 86.789062 106.433594 87.582031 107.222656 L 91.554688 107.167969 C 92.804688 105.867188 93.597656 105.300781 94.445312 103.199219 C 95.296875 101.101562 95.183594 100.027344 96.773438 98.324219 C 99.949219 98.324219 97.90625 99.179688 99.835938 99.800781 C 100.800781 99.800781 102.5625 99.914062 101.9375 98.496094 C 101.710938 97.933594 99.667969 97.421875 99.667969 96.003906 C 99.667969 89.996094 100.859375 91.410156 101.9375 89.539062 C 103.015625 87.671875 101.824219 88.125 105.113281 88.125 C 106.476562 88.125 107.328125 92.316406 107.328125 93.679688 C 107.328125 96.230469 106.476562 94.871094 107.894531 97.136719 C 108.800781 98.609375 108.519531 99.632812 109.085938 100.992188 C 110.332031 100.59375 110.902344 98.835938 111.242188 97.535156 C 111.46875 97.757812 111.582031 97.816406 111.640625 97.816406 C 111.640625 97.871094 111.640625 97.988281 111.808594 98.269531 C 111.921875 98.550781 111.980469 98.949219 112.09375 99.234375 C 113.113281 99.121094 112.832031 98.894531 113.625 99.289062 C 113.625 101.101562 112.433594 103.542969 113.226562 105.355469 C 114.304688 105.695312 114.53125 105.46875 115.441406 105.015625 C 115.667969 103.824219 115.609375 102.691406 116.121094 101.667969 C 116.6875 100.425781 117.425781 100.253906 117.992188 99.289062 C 118.5625 96.96875 115.894531 92.546875 125.199219 96.34375 C 125.253906 97.933594 124.859375 99.574219 124.859375 100.933594 C 124.859375 105.074219 126.277344 105.242188 123.042969 108.300781 C 122.019531 109.210938 122.246094 109.777344 120.828125 111.195312 C 121 112.441406 121.226562 112.097656 121.171875 113.0625 C 121.054688 114.085938 120.714844 113.859375 120.546875 115.105469 C 122.191406 117.203125 125.59375 118.960938 125.140625 122.246094 C 123.097656 123.324219 122.703125 121.679688 119.921875 121.394531 C 119.355469 123.664062 119.582031 123.097656 116.972656 123.4375 C 115.324219 123.664062 113.738281 122.8125 113.511719 121.511719 C 113.113281 119.582031 114.929688 119.46875 114.929688 117.769531 C 114.929688 116.464844 114.757812 115.726562 114.019531 115.160156 C 112.375 116.75 115.324219 117.769531 109.425781 121.738281 C 104.320312 125.195312 107.78125 126.5 104.261719 127.800781 C 100.234375 129.332031 102.617188 128.765625 99.496094 134.320312 C 97.90625 137.210938 96.546875 138.964844 98.476562 142.882812 C 100.40625 143.953125 100.0625 142.199219 100.746094 144.863281 C 101.425781 147.808594 101.992188 148.492188 104.828125 149.398438 " fill-opacity="1" fill-rule="evenodd"/></g></svg>