<svg xmlns="http://www.w3.org/2000/svg" xmlns:xlink="http://www.w3.org/1999/xlink" width="500" zoomAndPan="magnify" viewBox="0 0 375 374.999991" height="500" preserveAspectRatio="xMidYMid meet" version="1.0"><defs><clipPath id="c0e3c53ff0"><path d="M 6.757812 6.757812 L 368.257812 6.757812 L 368.257812 368.257812 L 6.757812 368.257812 Z M 6.757812 6.757812 " clip-rule="nonzero"/></clipPath><clipPath id="24ead73ed6"><path d="M 24 7 L 368.257812 7 L 368.257812 333 L 24 333 Z M 24 7 " clip-rule="nonzero"/></clipPath></defs><g clip-path="url(#c0e3c53ff0)"><path fill="#004aad" d="M 368.234375 187.488281 C 368.234375 188.507812 368.222656 189.539062 368.207031 190.554688 C 368.191406 191.433594 368.179688 192.292969 368.152344 193.171875 C 368.109375 194.328125 368.066406 195.488281 368.007812 196.644531 C 367.953125 197.664062 367.894531 198.667969 367.824219 199.671875 C 367.769531 200.675781 367.683594 201.691406 367.597656 202.679688 C 367.527344 203.597656 367.445312 204.503906 367.359375 205.40625 C 367.175781 207.300781 366.949219 209.179688 366.710938 211.046875 C 366.640625 211.609375 366.554688 212.175781 366.484375 212.742188 C 366.230469 214.507812 365.960938 216.273438 365.664062 218.039062 C 365.394531 219.523438 365.125 221.007812 364.84375 222.476562 C 364.109375 226.25 363.261719 229.980469 362.273438 233.667969 C 359.953125 242.5 356.988281 251.0625 353.414062 259.316406 C 350.714844 265.546875 347.660156 271.59375 344.296875 277.445312 C 340.820312 283.492188 337.007812 289.328125 332.867188 294.898438 C 330.675781 297.878906 328.386719 300.773438 326.011719 303.601562 C 322.609375 307.671875 319.019531 311.570312 315.273438 315.316406 C 282.5625 348.027344 237.386719 368.234375 187.488281 368.234375 C 87.671875 368.234375 6.757812 287.324219 6.757812 187.488281 C 6.757812 160.019531 12.890625 133.976562 23.855469 110.660156 C 24.070312 110.195312 24.292969 109.742188 24.507812 109.289062 C 24.519531 109.277344 24.519531 109.25 24.535156 109.234375 C 24.550781 109.207031 24.5625 109.191406 24.578125 109.164062 C 41.449219 74.121094 69.300781 45.347656 103.667969 27.347656 C 106.605469 25.792969 109.585938 24.335938 112.625 22.953125 C 113.699219 22.457031 114.773438 21.976562 115.847656 21.511719 C 122.25 18.753906 128.847656 16.339844 135.617188 14.316406 C 136.804688 13.964844 137.988281 13.613281 139.191406 13.289062 C 143.742188 12.03125 148.347656 10.941406 153.039062 10.035156 C 154.351562 9.78125 155.667969 9.542969 156.980469 9.316406 L 156.996094 9.316406 C 158.464844 9.074219 159.933594 8.835938 161.40625 8.625 C 161.417969 8.625 161.417969 8.625 161.433594 8.625 C 169.953125 7.394531 178.644531 6.757812 187.488281 6.757812 C 194.230469 6.757812 200.898438 7.125 207.441406 7.859375 C 222.152344 9.457031 236.3125 12.835938 249.734375 17.78125 C 263.019531 22.628906 275.582031 29.027344 287.195312 36.730469 C 289.808594 38.453125 292.382812 40.246094 294.898438 42.113281 C 295.984375 42.917969 297.074219 43.738281 298.132812 44.570312 C 298.5 44.855469 298.867188 45.136719 299.222656 45.433594 C 302.019531 47.625 304.730469 49.898438 307.386719 52.273438 C 322.820312 65.9375 335.890625 82.214844 345.894531 100.417969 C 348.550781 105.222656 350.980469 110.152344 353.1875 115.195312 C 354.375 117.910156 355.488281 120.652344 356.535156 123.421875 C 357.242188 125.242188 357.890625 127.066406 358.527344 128.917969 C 361.75 138.328125 364.222656 148.078125 365.859375 158.113281 C 365.859375 158.113281 365.859375 158.113281 365.859375 158.125 C 366.496094 162 367.003906 165.914062 367.386719 169.867188 C 367.953125 175.664062 368.234375 181.539062 368.234375 187.488281 Z M 368.234375 187.488281 " fill-opacity="1" fill-rule="nonzero"/></g><g clip-path="url(#24ead73ed6)"><path fill="#7ed957" d="M 179.605469 198.425781 C 187.304688 202.269531 204.375 203.953125 204.375 203.953125 L 202.933594 219.113281 L 195.542969 228.128906 L 195.175781 243.277344 L 191.390625 250.867188 C 191.390625 250.867188 179.125 252.308594 176.242188 258.792969 C 173.34375 265.292969 174.617188 274.308594 170.828125 276.472656 C 167.042969 278.648438 162.167969 280.808594 160.542969 285.667969 C 158.917969 290.542969 152.417969 293.976562 150.976562 298.300781 C 149.535156 302.625 151.34375 318.691406 152.96875 321.757812 C 154.59375 324.824219 158.011719 329.148438 158.011719 330.773438 C 158.011719 332.398438 158.011719 332.398438 158.011719 332.398438 L 152.0625 328.964844 C 152.0625 328.964844 150.253906 326.804688 143.402344 324.824219 C 136.546875 322.832031 136.195312 312.558594 135.292969 306.425781 C 134.386719 300.28125 124.652344 293.425781 126.261719 282.066406 C 127.886719 270.707031 130.785156 252.84375 122.84375 243.828125 C 114.902344 234.800781 112.203125 229.386719 110.394531 225.785156 C 108.585938 222.179688 101.730469 220.554688 100.65625 215.863281 C 99.570312 211.171875 100.65625 202.878906 98.3125 202.339844 C 95.964844 201.789062 94.339844 196.378906 99.9375 188.804688 C 105.519531 181.230469 108.230469 178.882812 97.589844 174.191406 C 86.9375 169.5 88.207031 163.90625 84.773438 159.582031 C 81.355469 155.257812 76.480469 153.449219 71.25 153.449219 C 66.023438 153.449219 56.824219 150.382812 52.851562 146.949219 C 50.351562 144.785156 35.316406 124.59375 24.578125 109.164062 C 41.449219 74.121094 69.300781 45.347656 103.667969 27.347656 C 108.402344 27.585938 113.261719 27.472656 117.542969 26.695312 C 126.683594 25.03125 132.550781 18.714844 135.617188 14.316406 C 136.804688 13.964844 137.988281 13.613281 139.191406 13.289062 C 140.277344 16.324219 142.496094 20.707031 146.78125 23.445312 C 151.117188 26.214844 155.511719 26.683594 155.511719 26.683594 L 156.289062 30.667969 C 156.289062 30.667969 116.3125 38.242188 118.730469 47.144531 C 121.160156 56.03125 132.945312 52.1875 143.769531 44.246094 C 154.59375 36.320312 164.214844 40.164062 168.539062 44.007812 C 172.863281 47.863281 182.007812 56.273438 176.722656 60.609375 C 171.421875 64.933594 144.730469 65.65625 144.730469 71.675781 C 144.730469 77.679688 161.078125 73.355469 160.117188 79.121094 C 159.15625 84.902344 153.394531 84.902344 150.496094 83.21875 C 147.613281 81.539062 146.652344 77.707031 139.671875 84.195312 C 132.703125 90.667969 125.722656 107.511719 112.980469 109.914062 C 100.234375 112.316406 106 128.917969 101.914062 128.917969 C 97.832031 128.917969 96.136719 114.972656 89.167969 115.691406 C 82.1875 116.414062 76.183594 120.496094 71.605469 120.738281 C 67.039062 120.976562 58.136719 130.597656 65.117188 139.503906 C 72.085938 148.40625 87.488281 139.503906 87.96875 143.105469 C 88.449219 146.710938 80.746094 151.527344 86.527344 153.449219 C 92.292969 155.371094 94.933594 157.476562 95.414062 162.804688 C 95.894531 168.117188 100.472656 170.277344 106.238281 168.355469 C 112.019531 166.433594 124.042969 161.871094 131.746094 164.753906 C 139.429688 167.636719 152.417969 179.179688 162.519531 178.699219 C 172.625 178.21875 171.902344 194.582031 179.605469 198.425781 Z M 207.441406 7.859375 C 207.03125 9.332031 206.171875 10.785156 204.773438 12.101562 C 199.089844 17.457031 197.394531 24.519531 199.246094 25.820312 C 201.097656 27.121094 203.359375 34.453125 207.839844 33.324219 C 212.332031 32.195312 215.894531 24.605469 215.894531 24.605469 C 221.785156 25.777344 245.949219 19.390625 249.734375 17.78125 C 236.3125 12.835938 222.152344 9.457031 207.441406 7.859375 Z M 173.585938 27.855469 C 172.949219 29.128906 166.632812 30.300781 167.269531 34.539062 C 167.90625 38.777344 175.027344 36.515625 175.027344 36.515625 C 175.027344 36.515625 173.132812 33.183594 176.015625 32.011719 C 178.898438 30.835938 183.957031 31.472656 184.761719 28.761719 C 184.761719 28.761719 180.621094 27.503906 181.074219 25.15625 C 181.511719 22.8125 181.878906 18.472656 181.878906 18.472656 C 181.878906 18.472656 171.960938 17.582031 169.53125 17.582031 C 167.085938 17.582031 164.839844 14.6875 164.839844 14.6875 L 163.664062 11.988281 L 168.171875 12.621094 L 168.980469 11.265625 C 168.980469 11.265625 163.75 9.105469 161.589844 8.652344 C 161.53125 8.636719 161.488281 8.625 161.433594 8.625 C 161.417969 8.625 161.417969 8.625 161.40625 8.625 C 159.933594 8.835938 158.464844 9.074219 156.996094 9.316406 L 156.980469 9.316406 C 155.949219 9.640625 155.1875 9.953125 155.1875 9.953125 L 157.800781 11.265625 L 157.53125 14.148438 L 147.332031 15.859375 L 146.976562 19.644531 C 146.976562 19.644531 159.058594 20.464844 164.203125 21.636719 C 169.347656 22.8125 174.207031 26.597656 173.585938 27.855469 Z M 289.5 50.125 C 292.382812 51.933594 295.152344 54.335938 295.152344 54.335938 L 299.234375 53.136719 C 299.234375 53.136719 298.597656 49.078125 299.222656 45.433594 C 298.867188 45.136719 298.5 44.855469 298.132812 44.570312 C 297.074219 43.738281 295.984375 42.917969 294.898438 42.113281 C 292.382812 40.246094 289.808594 38.453125 287.195312 36.730469 C 282.644531 40.332031 276.144531 42.183594 276.144531 42.183594 L 276.992188 50.125 C 276.992188 50.125 286.617188 48.316406 289.5 50.125 Z M 367.386719 169.867188 C 366.46875 170.660156 364.929688 171.382812 362.5 171.113281 C 357.625 170.5625 354.386719 153.972656 351.320312 150.183594 C 348.253906 146.398438 339.410156 134.132812 339.410156 134.132812 L 338.503906 124.75 L 341.710938 121.769531 C 343.71875 125.511719 346.65625 130.429688 349.625 133.339844 C 354.925781 138.511719 360.449219 145.621094 362.386719 151.386719 C 363.164062 153.746094 364.320312 156.203125 365.859375 158.113281 C 364.222656 148.078125 361.75 138.328125 358.527344 128.917969 C 357.890625 127.066406 357.242188 125.242188 356.535156 123.421875 C 355.488281 120.652344 354.371094 117.910156 353.1875 115.195312 C 350.980469 110.152344 348.550781 105.222656 345.894531 100.417969 C 335.890625 82.214844 322.820312 65.9375 307.386719 52.273438 L 306.9375 54.335938 L 301.652344 57.347656 C 301.652344 57.347656 302.132812 59.507812 300.210938 59.988281 C 298.273438 60.46875 287.691406 61.429688 286.730469 59.988281 C 285.769531 58.546875 285.65625 54.097656 285.65625 54.097656 L 284.328125 52.527344 L 282.277344 54.097656 C 282.277344 54.097656 283.605469 60.582031 280.117188 61.671875 C 276.625 62.757812 273.023438 64.921875 270.140625 70.207031 C 267.257812 75.503906 262.324219 86.328125 262.324219 86.328125 C 262.324219 86.328125 252.703125 87.640625 248.972656 90.894531 C 245.242188 94.140625 246.683594 102.085938 246.683594 102.085938 C 246.683594 102.085938 261.605469 102.5625 265.320312 98.945312 C 269.050781 95.34375 270.859375 87.160156 273.023438 86.441406 C 275.183594 85.722656 278.195312 86.328125 279.042969 84.519531 C 279.875 82.710938 282.757812 83.445312 286.488281 86.328125 C 290.21875 89.210938 295.632812 96.191406 295.632812 96.191406 L 301.410156 94.992188 C 301.410156 94.992188 297.074219 89.929688 295.519531 89.210938 C 293.949219 88.492188 288.410156 85 287.449219 81.75 C 286.488281 78.515625 290.699219 78.386719 298.753906 82.839844 C 306.824219 87.289062 307.898438 95.824219 307.898438 95.824219 L 311.628906 96.671875 C 311.628906 96.671875 315.953125 90.894531 320.769531 91.132812 C 325.574219 91.371094 328.953125 91.980469 328.953125 91.980469 L 325.574219 95.953125 L 334.476562 105.320312 C 334.476562 105.320312 341.8125 102.324219 344.582031 106.648438 C 346.542969 109.699219 343.011719 113.429688 340.792969 115.351562 L 340.78125 115.351562 C 340.777344 115.351562 340.777344 115.351562 340.777344 115.351562 C 340.769531 115.351562 332.015625 115.15625 327.144531 115.351562 C 322.269531 115.550781 311.089844 110.136719 311.089844 110.136719 C 311.089844 110.136719 311.445312 116.457031 302.613281 116.808594 C 293.765625 117.175781 287.097656 108.882812 286.558594 106.167969 C 286.007812 103.46875 286.558594 101.476562 286.558594 101.476562 L 282.222656 100.21875 C 282.222656 100.21875 273.207031 104.191406 262.015625 105.984375 C 250.839844 107.792969 244.167969 116.273438 240.734375 121.5 C 237.300781 126.726562 226.308594 138.824219 224.5 148.023438 C 222.691406 157.222656 225.402344 164.796875 232.792969 173.273438 C 240.199219 181.753906 247.773438 183.011719 260.40625 181.753906 C 273.023438 180.496094 276.273438 180.128906 276.273438 180.128906 L 284.03125 184.28125 L 288.539062 182.289062 L 291.972656 190.046875 L 284.03125 197.085938 C 284.03125 197.085938 291.789062 210.621094 293.046875 215.851562 C 294.316406 221.078125 294.316406 224.144531 294.316406 224.144531 L 289.074219 238.570312 C 289.074219 238.570312 297.015625 254.808594 297.738281 260.035156 C 298.457031 265.277344 303.6875 268.882812 303.6875 268.882812 L 308.378906 282.40625 L 332.867188 294.898438 C 337.007812 289.328125 340.820312 283.492188 344.296875 277.445312 C 347.660156 271.59375 350.714844 265.546875 353.414062 259.316406 C 356.988281 251.0625 359.953125 242.5 362.273438 233.667969 C 363.261719 229.980469 364.109375 226.25 364.84375 222.476562 C 365.125 221.007812 365.394531 219.523438 365.664062 218.039062 C 365.960938 216.273438 366.230469 214.507812 366.484375 212.742188 C 366.554688 212.175781 366.640625 211.609375 366.710938 211.046875 C 366.949219 209.179688 367.175781 207.300781 367.359375 205.40625 C 367.445312 204.503906 367.527344 203.597656 367.597656 202.679688 C 367.683594 201.691406 367.769531 200.675781 367.824219 199.671875 C 367.894531 198.667969 367.953125 197.664062 368.007812 196.648438 C 368.066406 195.488281 368.109375 194.328125 368.152344 193.171875 C 368.179688 192.292969 368.191406 191.433594 368.207031 190.554688 C 368.222656 189.539062 368.234375 188.507812 368.234375 187.488281 C 368.234375 181.539062 367.953125 175.664062 367.386719 169.867188 Z M 367.386719 169.867188 " fill-opacity="1" fill-rule="nonzero"/></g></svg>